<?xml version="1.0" encoding="utf-8"?>
<!-- Generator: Adobe Illustrator 21.1.0, SVG Export Plug-In . SVG Version: 6.00 Build 0)  -->
<svg version="1.1" id="Layer_1" xmlns="http://www.w3.org/2000/svg" xmlns:xlink="http://www.w3.org/1999/xlink" x="0px" y="0px"
	 viewBox="0 0 136 136" style="enable-background:new 0 0 136 136;" xml:space="preserve">
<style type="text/css">
	.st0{fill:#E2E1E0;}
	.st1{fill:#523B0F;}
	.st2{fill:#32240A;}
	.st3{fill:#2A6612;}
	.st4{fill:#20470E;}
	.st5{fill:none;stroke:#4E6D40;stroke-miterlimit:10;}
	.st6{stroke:#000000;stroke-miterlimit:10;}
	.st7{fill:#D8D6D6;}
	.st8{fill:#0F0C0C;}
</style>
<path class="st0" d="M85,127.5c0,2.9-7.4,5.5-17.2,5.5S51,131.4,51,128.5c0-2.9,7.2-5,17-5S85,124.6,85,127.5z"/>
<rect x="62.5" y="103" class="st1" width="10" height="27"/>
<g>
	<g>
		<path class="st2" d="M62.7,106.4c0,0.1,0,0.2,0,0.4c0.9-0.4,1.7-0.7,2.6-1.1c-0.1-0.1-0.1-0.1-0.2-0.2c-0.9-1.1-2.5-0.1-2.6,1.1
			c-0.1,1.4-0.2,2.8-0.1,4.3c0.1,1,0.9,1.7,1.9,1.4c1.7-0.4,3.4-1.2,5-1.9c0.7-0.3,1.4-0.9,1.8-1.1c0.4-0.2,1.1-0.4,1.4-1.2
			c0.5-1.2-0.1-2.7-1.6-2.6c-0.9,0-1.6,0.6-2.4,0.9c-0.4,0.1-0.7,0.1-1.1,0.1c-0.4,0-1.5-0.4-0.8,0.2c0.1,0.4,0.3,0.7,0.4,1.1
			c0-0.1,0-0.2,0-0.3c-0.1,0.4-0.3,0.7-0.4,1.1c0.2-0.2,1.1-0.3,1.4-0.4c0.7-0.1,1.3-0.2,2-0.2c1.9-0.1,1.9-3.1,0-3
			c-1.6,0.1-7.4,0.6-5.7,3.6c0.6,1.1,1.9,0.9,3,1c0.7,0,1.5,0,2.2-0.2c0.3-0.1,0.5-0.2,0.8-0.3c0.6-0.2,1-0.2,0.3-0.6
			c-0.2-0.3-0.5-0.6-0.7-0.9c0-0.1,0-0.2-0.1-0.3c0.3-0.2,0.6-0.5,0.9-0.7c-0.5,0.2-0.9,0.4-1.4,0.7c-0.6,0.5-1.2,0.6-2,0.9
			c-1.2,0.5-2.4,1.1-3.7,1.4c0.6,0.5,1.3,1,1.9,1.4c-0.1-1.4,0-2.8,0.1-4.3c-0.9,0.4-1.7,0.7-2.6,1.1c0.1,0.1,0.1,0.1,0.2,0.2
			c0.9,1.1,2.5,0.1,2.6-1.1c0-0.1,0-0.2,0-0.4C65.7,104.5,62.7,104.5,62.7,106.4L62.7,106.4z"/>
	</g>
</g>
<g>
	<path class="st3" d="M75,54.5l36,46c2.7,5.1-2.2,6-8,6H37c-6,0-9.7-1.9-7-7l19-29C51.9,65.1,72.1,49.1,75,54.5z"/>
</g>
<g>
	<g>
		<path class="st4" d="M44.4,80.6c3.9,0.3,7.8-0.5,11.8-0.5c4.3,0.1,8.6-0.1,13-0.2c4.2-0.2,8.5-0.7,12.7-0.5
			c3.9,0.2,7.4,1.2,11.4,0.8c1.9-0.2,1.9-3.2,0-3c-3.9,0.4-7.5-0.7-11.4-0.8c-4.2-0.1-8.5,0.3-12.7,0.5c-4.3,0.2-8.6,0.3-13,0.2
			c-3.9,0-7.8,0.8-11.8,0.5C42.5,77.4,42.5,80.4,44.4,80.6L44.4,80.6z"/>
	</g>
</g>
<g>
	<path class="st3" d="M75,39.5l28,32c5,4,5.8,7,0,7H39c-9,0-12-2-5-9l26-21C60.3,45.8,72.1,34,75,39.5z"/>
</g>
<g>
	<g>
		<path class="st4" d="M43.3,82.6c16.8,0.1,34.1,0.7,50.8-1.7c1.9-0.3,1.1-3.2-0.8-2.9c-16.4,2.4-33.5,1.7-50,1.6
			C41.3,79.6,41.3,82.6,43.3,82.6L43.3,82.6z"/>
	</g>
</g>
<g>
	<g>
		<path class="st4" d="M52.3,53.8c-1,1.1-2.3,1.5-3.2,2.6c-0.8,0.9-0.3,2.6,1.1,2.6c6-0.3,11.9-1.9,18.1-2.1c3.8-0.1,7.6-0.1,11.3,0
			c2.6,0,5.7,0.8,8.2,0c1.6-0.5,1.3-2.9-0.4-2.9c-3.2-0.1-5.9-0.2-8.9-1.1c-2.7-0.8-5.8-0.4-8.6-0.7c-5.3-0.6-10.9-0.2-16.2,0.6
			c-1.9,0.3-1.1,3.2,0.8,2.9c6.1-0.9,11.9-0.3,18-0.1c5.1,0.2,9.8,1.3,15,1.4c-0.1-1-0.3-2-0.4-2.9c-2.8,0.9-7.3-0.1-10.2-0.1
			c-3.5,0-7,0-10.5,0.1c-5.5,0.2-10.7,1.8-16.1,2c0.4,0.9,0.7,1.7,1.1,2.6c1-1.1,2.3-1.5,3.2-2.6C55.7,54.5,53.6,52.4,52.3,53.8
			L52.3,53.8z"/>
	</g>
</g>
<g>
	<path class="st3" d="M70,6.5l28,39c2.4,4,1.6,9-3,9H39c-4.6,0,0-6,1-8l26-40C68.8,2.7,67,2.5,70,6.5z"/>
</g>
<g>
	<g>
		<path class="st4" d="M72.4,82.1C74.9,82,77.5,82,80,82c1.9,0,1.9-3,0-3c-2.5,0-5.1,0-7.6,0.1C70.5,79.2,70.5,82.2,72.4,82.1
			L72.4,82.1z"/>
	</g>
</g>
<g>
	<g>
		<path class="st5" d="M42.8,79.6"/>
	</g>
</g>
<g>
	<g>
		<path class="st5" d="M44.4,81.9"/>
	</g>
</g>
<g>
	<g>
		<path class="st5" d="M42.9,80.1"/>
	</g>
</g>
<g>
	<g>
		<path class="st5" d="M43.1,79.8"/>
	</g>
</g>
<g>
	<g>
		<path class="st4" d="M43.8,81.9c1.9,0,1.9-3,0-3C41.9,78.9,41.9,81.9,43.8,81.9L43.8,81.9z"/>
	</g>
</g>
<g>
	<g>
		<path class="st4" d="M43.4,81.6c1.9,0,1.9-3,0-3C41.5,78.6,41.5,81.6,43.4,81.6L43.4,81.6z"/>
	</g>
</g>
<g>
	<g>
		<path class="st4" d="M43.5,82.6c1.9,0,1.9-3,0-3C41.6,79.6,41.6,82.6,43.5,82.6L43.5,82.6z"/>
	</g>
</g>
<g>
	<g>
		<path class="st4" d="M42.8,81.5c1.9,0,1.9-3,0-3C40.9,78.5,40.9,81.5,42.8,81.5L42.8,81.5z"/>
	</g>
</g>
<g>
	<g>
		<path class="st4" d="M43,82.1c1.9,0,1.9-3,0-3C41.1,79.1,41.1,82.1,43,82.1L43,82.1z"/>
	</g>
</g>
<g>
	<g>
		<path class="st4" d="M42.9,78.5c-0.1,0-0.1,0-0.2,0c-1.4,0-1.9,1.6-1.1,2.6c0,0,0,0,0.1,0.1c-0.1-0.4-0.3-0.7-0.4-1.1
			c0,0.4,0.1,0.8,0.3,1.1c0.1,0.1,0.1,0.1,0,0c0.1,0.2,0.2,0.4,0.3,0.6c0.4,0.7,1.4,0.9,2.1,0.5c0.7-0.4,0.9-1.3,0.5-2.1
			c0.1,0.3-0.1-0.1-0.1-0.2c0,0-0.2-0.4-0.2-0.4c0,0.1,0.1,0.3,0.1,0.4c0-0.1,0-0.3-0.1-0.4c-0.1-0.3-0.3-0.5-0.4-0.7
			c-0.4,0.9-0.7,1.7-1.1,2.6c0.1,0,0.1,0,0.2,0c0.8,0,1.5-0.7,1.5-1.5C44.4,79.3,43.8,78.5,42.9,78.5L42.9,78.5z"/>
	</g>
</g>
<g>
	<g>
		<path class="st4" d="M42.7,78.7c-0.1,0-0.5,0.1-0.1,0.1c0.4,0.1,0.7,0.3,1.1,0.4c0,0,0,0,0-0.1c-0.3-0.4-1-0.5-1.5-0.4
			c-0.5,0.1-0.9,0.5-1,1c-0.1,0.2-0.2,0.4-0.3,0.6c-0.5,0.9,0.1,2.3,1.3,2.3c0.9-0.1,1.9-0.1,2.7-0.5c0.7-0.4,0.9-1.4,0.5-2.1
			c-0.4-0.7-1.4-1-2.1-0.5c0.1-0.1,0,0-0.1,0c-0.1,0-0.1,0-0.2,0c-0.3,0-0.6,0.1-0.8,0.1c0.4,0.8,0.9,1.5,1.3,2.3
			c0.2-0.4,0.4-0.9,0.6-1.4c-0.8,0.2-1.7,0.4-2.5,0.7c0.5,0.6,1.3,0.5,2,0.3c0.8-0.3,1.3-1,1-1.8C44.4,79,43.5,78.5,42.7,78.7
			L42.7,78.7z"/>
	</g>
</g>
<g>
	<g>
		<path class="st4" d="M50.4,59.8c5.8,0.3,11.6-1.4,17.4-1.7c6.1-0.4,12.3-0.5,18.5-0.7c1.9-0.1,1.9-3.1,0-3
			c-6.2,0.2-12.3,0.3-18.5,0.7c-5.8,0.4-11.6,2.1-17.4,1.7C48.5,56.7,48.5,59.7,50.4,59.8L50.4,59.8z"/>
	</g>
</g>
<g>
	<g>
		<path class="st2" d="M62.5,111.2c0.1,0.3,0,0.8,0.1,1.1c0.1,0.2,0.3,0.3,0.5,0.3c0.2,0,0.3-0.2,0.5-0.2c0.2-0.1,0.4-0.1,0.6-0.2
			c-0.2-0.2-0.3-0.3-0.5-0.5c0,0,0,0.1-0.1,0.1c0.1-0.1,0.1-0.1,0.2-0.2c-0.2,0-0.3,0-0.5,0.1c-0.2,0.1-0.4,0.2-0.6,0.3
			c0.2,0.1,0.4,0.2,0.6,0.3c0-0.4,0.1-0.8,0.2-1.3c0.1-0.5-0.6-0.7-0.7-0.2c-0.1,0.5-0.2,1-0.2,1.5c0,0.3,0.3,0.4,0.6,0.3
			c0.3-0.1,0.5-0.2,0.8-0.3c0.2,0,0.3-0.1,0.4-0.3c0.2-0.3-0.2-0.7-0.5-0.5c-0.1,0.1-0.3,0.1-0.5,0.1c-0.1,0-0.2,0.2-0.3,0.2
			c0.2,0.1,0.3,0.2,0.5,0.3c-0.1-0.2,0-0.4,0-0.6c0-0.2,0-0.4-0.1-0.5C63.1,110.6,62.4,110.8,62.5,111.2L62.5,111.2z"/>
	</g>
</g>
<g>
	<g>
		<path class="st2" d="M71.7,109c0.2-0.2,0.6-0.4,0.8-0.7c0.1-0.3,0.1-0.6,0.1-0.9c0-0.5-0.8-0.5-0.8,0c0,0.2,0,0.4,0,0.6
			c-0.1,0.2-0.5,0.4-0.6,0.5C70.8,108.8,71.4,109.3,71.7,109L71.7,109z"/>
	</g>
</g>
<g>
	<g>
		<path class="st2" d="M66.7,107.6c0.5,0,0.5-0.8,0-0.8C66.2,106.8,66.2,107.6,66.7,107.6L66.7,107.6z"/>
	</g>
</g>
<circle class="st6" cx="52" cy="38.5" r="13.5"/>
<circle class="st7" cx="52" cy="38.5" r="10.5"/>
<circle class="st6" cx="85" cy="38.5" r="13.5"/>
<circle class="st7" cx="85" cy="38.5" r="10.5"/>
<path class="st8" d="M73.9,30.8c0-0.1-0.1-0.3-0.1-0.4c-0.1-0.2-0.3-0.4-0.5-0.6c-1.1-0.6-1.8-1.6-2.1-2.8c-0.1-0.2-0.2-0.5-0.4-0.6
	c-0.8-0.6-1.6-0.9-2.3-0.9c-0.6,0-1.4,0.3-2.1,0.8c-0.2,0.1-0.3,0.3-0.4,0.6c-0.3,1-1,1.9-2,2.4c-0.2,0.1-0.4,0.3-0.5,0.5
	c-0.2,0.4-0.3,0.7-0.5,1.1c-0.2,0.4,0,0.9,0.3,1.3c1.4,1.3,1.8,3.6,1.1,5.4c-0.1,0.3-0.1,0.7,0.1,1c0.1,0.2,0.2,0.3,0.3,0.5
	c0.3,0.5,0.9,0.6,1.4,0.3c0.6-0.4,1.4-0.6,2.3-0.6c0.8,0,1.5,0.2,2.1,0.5c0.5,0.3,1,0.1,1.4-0.4c0,0,0.1-0.1,0.1-0.1
	c0.2-0.3,0.3-0.7,0.1-1c-0.8-1.9-0.3-4.4,1.3-5.8C73.9,31.7,74.1,31.2,73.9,30.8z"/>
</svg>
